<?xml version="1.0" encoding="utf-8"?>
<!-- Generator: Adobe Illustrator 23.0.2, SVG Export Plug-In . SVG Version: 6.00 Build 0)  -->
<svg version="1.1" id="logo" xmlns="http://www.w3.org/2000/svg" xmlns:xlink="http://www.w3.org/1999/xlink" x="0px" y="0px"
	 viewBox="0 0 576 576" style="enable-background:new 0 0 576 576;" xml:space="preserve">
<style type="text/css">
	.st0{fill:none;}
	.st1{fill:none;stroke:#BABABA;stroke-width:4.6369;stroke-dasharray:13.9106;}
	.st2{fill:#FFEDAF;stroke:#FFFFFF;stroke-width:0.1243;stroke-miterlimit:10;}
</style>
<g id="circle" transform="translate(-348 -211)">
	<g id="Ellipse_6" transform="translate(633 211)">
		<circle class="st0" cx="35.8" cy="293.4" r="151.6"/>
		<circle class="st1" cx="35.8" cy="293.4" r="149.3"/>
	</g>
</g>
<g id="beez">
	<path id="Path_12" class="st2" d="M265.4,253.5c-0.3-1.4-1.6-2.8-2.9-3.4c-2.9-1.5-6.5-0.4-8,2.4l0,0c-0.7,1.4-0.8,3-0.4,4.6
		c0.9,4,2.2,7.9,2.9,11.9c0.4,2.3,0.5,4.6,0.4,6.9c-0.2,1.3-0.4,2.5-0.8,3.8c-0.3,0.8-0.7,1.5-1.2,2.2c-0.4,0.6-0.9,1.1-1.5,1.6
		c-0.5,0.4-1.1,0.7-1.6,1c-0.5,0.2-0.9,0.3-1.4,0.5c-0.4,0-0.7,0-1.1,0c-0.4-0.1-0.8-0.2-1.2-0.3c-0.5-0.2-1-0.5-1.4-0.8
		c-0.6-0.5-1.1-1-1.6-1.5c-0.6-0.8-1.1-1.7-1.6-2.6c-0.9-2.2-1.5-4.4-2-6.7c-0.6-4-0.9-8-0.7-12c0.1-1.4-0.9-3.2-1.9-4.1
		c-2.4-2.2-6.1-2.1-8.3,0.3c-1,1.2-1.6,2.7-1.6,4.2c-0.1,3.1,0,6.2,0.3,9.2c0.3,3.3,1,6.6,1.9,9.8c0.5,1.7,1.2,3.4,2,5
		c0.6,1.2,1.3,2.3,2.1,3.4c2,2.6,4.5,4.9,7.6,6.2c1.7,0.7,3.5,1.2,5.3,1.4c1.8,0.2,3.7,0,5.5-0.4c3.2-0.7,6.1-2.6,8.4-4.8
		c4.8-4.5,6.6-11.2,6.6-17.5C269.4,267,267,260.3,265.4,253.5z"/>
	<path id="Path_13" class="st2" d="M335.8,268.2c0,1.6-0.5,3.1-1.4,4.3c-2.1,2.5-5.9,2.7-8.3,0.6l0,0c-1.1-0.9-2-2.6-2-4
		c0-4-0.3-8-1.1-12c-0.5-2.3-1.2-4.5-2.2-6.7c-0.5-0.9-1.1-1.7-1.7-2.5c-0.5-0.5-1.1-1-1.7-1.4c-0.5-0.3-0.9-0.5-1.4-0.7
		c-0.4-0.1-0.8-0.2-1.2-0.2c-0.4,0-0.7,0-1.1,0.1c-0.5,0.1-0.9,0.3-1.4,0.5c-0.6,0.3-1.1,0.7-1.6,1.1c-0.5,0.5-1,1-1.4,1.6
		c-0.4,0.7-0.8,1.5-1.1,2.2c-0.2,0.6-0.3,1.2-0.4,1.9c-0.1,0.6-0.2,1.3-0.3,1.9c0,2.3,0.2,4.7,0.6,6.9c0.9,4,2.3,7.9,3.3,11.8
		c0.2,0.9,0.3,1.8,0.3,2.7c-0.2,1.1-0.6,2.1-1.3,2.9c-2.1,2.5-5.9,2.7-8.3,0.6l0,0c-1.1-0.9-2-2.6-2-4c0-4-0.3-8-1.1-12
		c-0.5-2.3-1.2-4.5-2.2-6.7c-0.3-0.6-0.7-1.1-1.1-1.7c-0.2-0.3-0.4-0.6-0.6-0.8c-0.5-0.5-1.1-1-1.7-1.4c-0.5-0.3-0.9-0.5-1.4-0.7
		c-0.4-0.1-0.8-0.2-1.2-0.2c-0.4,0-0.7,0-1.1,0.1c-0.5,0.1-0.9,0.3-1.4,0.5c-0.5,0.3-1.1,0.7-1.6,1.1c-0.5,0.5-1,1-1.4,1.6
		c-0.4,0.7-0.8,1.5-1.1,2.2c-0.4,1.2-0.6,2.5-0.7,3.8c0,2.3,0.2,4.7,0.6,6.9c0.9,4,2.3,7.9,3.3,11.8c0.5,1.5,0.4,3.1-0.3,4.6
		c-1.4,2.9-5,4.1-7.9,2.7l0,0c-1.2-0.6-2.6-2-3-3.3c-1.8-6.7-4.4-13.4-4.6-20.4c-0.2-6.3,1.4-13.1,6-17.7c2.3-2.3,5.1-4.3,8.3-5.1
		c1.8-0.5,3.6-0.7,5.5-0.6c1.8,0.1,3.6,0.5,5.4,1.2c0.8,0.3,1.5,0.7,2.2,1.1c0.7-1.2,1.6-2.3,2.6-3.4c2.3-2.3,5.1-4.3,8.3-5.1
		c1.8-0.5,3.6-0.7,5.5-0.6c1.8,0.1,3.6,0.5,5.4,1.2c3.1,1.2,5.6,3.5,7.7,6c0.9,1,1.6,2.1,2.2,3.3c0.9,1.6,1.6,3.2,2.2,4.9
		c1,3.2,1.7,6.5,2.2,9.8C335.6,262,335.9,265.1,335.8,268.2z"/>
	<path id="Path_14" class="st2" d="M396.2,246c-0.8-1.3-2-2.3-3.5-2.7c-1.2-0.3-2.6-0.2-3.8,0.2c-0.6-1.9-1-3.9-1.5-5.9
		c-0.7-2.8-1.4-5.7-2.1-8.5c-1.3-5.7-2.4-11.4-3.4-17.2c-0.5-3-1-6.1-1.4-9.1c-0.8-6.2-1.4-12.3-1.9-18.5c0-1.6-0.7-3-1.7-4.2
		c-2.3-2.3-6-2.3-8.4,0l0,0c-1,1.1-1.8,2.6-1.7,4.2c0.8,11.1,2.1,22.1,4.1,33c0.9,5.2,2,10.4,3.1,15.5c0.6,2.6,1.2,5.1,1.9,7.7
		c0.6,2.4,1.2,4.9,2,7.2c0.6,2,1.7,3.9,3,5.5c1.3,1.5,2.9,2.5,4.8,3c1.8,0.5,3.7,0.5,5.5-0.1c1.3-0.4,2.4-1.1,3.4-2
		c1.1-1,1.6-2.1,2.1-3.5C397.3,249.2,396.9,247.2,396.2,246z"/>
	<path id="Path_15" class="st2" d="M433,224.3c-1.9-1.9-4.9-1.9-6.7,0c-0.9,0.9-1.4,2.1-1.4,3.4c0,0.6,0,1.1-0.1,1.7
		c-0.2,1.1-0.5,2.1-0.9,3.2c-0.5,1-1,1.9-1.7,2.8c-0.6,0.8-1.4,1.5-2.1,2.1c-0.8,0.6-1.7,1.1-2.6,1.5c-1.1,0.4-2.1,0.7-3.2,0.9
		c-1.1,0.1-2.2,0.1-3.3,0c-0.9-0.2-1.8-0.4-2.6-0.7c-0.3-0.2-0.6-0.3-0.9-0.5c-0.2-0.2-0.4-0.4-0.6-0.7c-0.5-0.8-1-1.6-1.4-2.5
		c-0.1-0.3-0.2-0.6-0.3-0.9c1.1,0.2,2.2,0,3.1-0.6c1.7-1,3.3-2,4.9-3.2c1.1-0.8,2.1-1.6,3-2.5s1.8-1.9,2.5-2.9
		c1.3-1.7,2.3-3.7,2.8-5.8c0.6-2.4,0.7-5.3-0.1-7.6c-0.9-2.5-2.6-4.7-5.1-5.8c-0.7-0.3-1.3-0.6-2-0.8s-1.5-0.3-2.3-0.3
		c-1.1-0.1-2.3,0-3.4,0.3c-2.3,0.4-4.4,1.8-6.2,3.4c-1.5,1.4-2.9,3.1-3.9,4.9c-2.1,3.7-3.4,7.8-3.8,12.1c-0.2,1.8-0.2,3.5,0,5.3
		c0.2,2.1,0.6,4.2,1.3,6.3c0.7,2.1,1.6,4,2.8,5.8c0.5,0.6,1,1.3,1.5,1.9c0.6,0.6,1.2,1.1,1.9,1.6c1.1,0.7,2.2,1.3,3.5,1.8
		c2,0.7,4.2,1.1,6.3,1.2c2.1,0.1,4.2-0.2,6.3-0.7c4.1-1.1,7.8-3.3,10.5-6.4c2.7-3.1,4.7-6.9,5.3-11.1c0.2-1.2,0.3-2.4,0.3-3.6
		C434.3,226.4,433.8,225.2,433,224.3z M409.1,215.5c0.3-0.2,0.7-0.4,1-0.6c0.2-0.1,0.5-0.1,0.7-0.2c0.2,0,0.4,0,0.6,0
		s0.3,0.1,0.5,0.1c0.1,0,0.1,0.1,0.2,0.1l0,0c0,0,0,0.1,0.1,0.1c0.1,0.2,0.1,0.3,0.1,0.5c0,0.4,0,0.7,0,1.1c-0.1,0.5-0.3,1-0.4,1.6
		c-0.3,0.7-0.7,1.4-1.2,2c-0.8,0.9-1.7,1.8-2.7,2.6c-1.3,0.9-2.6,1.8-3.9,2.6c0.3-1.6,0.7-3.2,1.3-4.7c0.6-1.3,1.3-2.5,2.1-3.6
		C408,216.5,408.5,216,409.1,215.5z"/>
	<path id="Path_16" class="st2" d="M475.9,218c-0.2-1.4-0.9-2.6-2-3.4c-1.1-0.8-2.5-1.2-3.8-0.9c-6.3,1.2-11.6,5-17,8.5
		c-1.3,0.8-2.7,1.7-4,2.4c3.1-4.8,6.9-9,10.2-13.7c1-1.4,1.9-2.8,2.8-4.3c1.4-2.4,2.9-5,2.3-7.9c-0.4-2.3-1.9-4.2-4-5.1
		c-1.4-0.6-2.9-0.6-4.4-0.5c-1.7,0.2-3.4,0.6-5.1,1c-2.3,0.6-4.6,1.3-6.9,2c-1.1,0.4-2.1,0.8-3.1,1.2c-0.5-0.6-1.1-1.1-1.9-1.4
		c-1.3-0.5-2.7-0.5-4,0.1l-1.1,0.7c-0.7,0.6-1.2,1.4-1.5,2.2c-0.1,0.1-0.1,0.2-0.1,0.3c-0.2,0.5-0.3,1.1-0.4,1.6
		c-0.1,0.6,0,1.3,0.1,1.9c0.2,1.3,0.8,2.4,1.6,3.4c0.9,1.1,2.2,1.9,3.6,2.3c1.2,0.3,2.4,0.3,3.5,0.1c1.5-0.5,3-1,4.5-1.6
		c1-0.4,2-0.7,3-1.1c0.9-0.3,1.7-0.5,2.6-0.8c-3.1,4.3-6.6,8.2-9.5,12.7c-1.3,1.8-2.3,3.8-3.2,5.8c-1,2.6-1.4,5.7-0.2,8.3
		c1.1,2.5,3.4,4.3,6.1,4.7c0.4,0.1,0.8,0.1,1.2,0.1c0.8,0,1.6,0,2.3-0.2c0.8-0.2,1.6-0.4,2.4-0.7s1.5-0.6,2.3-1
		c3.6-1.7,6.9-4.1,10.2-6.2c2.4-1.6,5-2.9,7.6-4c0.6-0.2,1.2-0.3,1.8-0.4c1.3-0.3,2.5-1,3.3-2.1C475.7,220.8,476.1,219.4,475.9,218z
		"/>
	<path id="Path_17" class="st2" d="M227.9,284.4c0.1-3.9-0.7-7.8-2.3-11.3c-1.7-3.4-4.3-6.5-7.7-8.3c-1.2-0.7-2.5-1.3-3.8-1.7
		c-1.3-0.4-2.7-0.7-4-0.9c-0.2,0-0.3,0-0.5-0.1c0.1-0.1,0.1-0.2,0.2-0.3c2.4-3.7,3.8-8,3.6-12.5c-0.2-4.2-2-8.3-5-11.2
		c-0.9-0.8-1.8-1.6-2.7-2.3c-1-0.7-2.1-1.2-3.2-1.8c-1.9-0.9-3.8-1.5-5.8-1.8c-2.2-0.4-4.4-0.5-6.6-0.3c-2,0.1-4.1,0.5-6,1
		c-4.1,1.1-8.2,2.5-12.1,4.2c-6.9,2.9-13.8,6.9-18,13.2c-0.7,1-1.3,2.1-1.8,3.2c-0.6,1.1-0.3,3,0.2,4.1c1.3,2.7,4.5,3.8,7.1,2.5l0,0
		l1.1-0.7c0.6-0.5,1.1-1.2,1.4-2c0.6-1.1,1.3-2.1,2.1-3c1-1,2-1.9,3.1-2.8c1.4,6.5,2.7,13,3.8,19.5c-0.3,0.4-0.5,0.9-0.7,1.3
		c-0.5,1.4-0.4,2.8,0.2,4.1c0.4,0.8,1,1.5,1.7,2c0.9,6.1,1.6,12.1,2.3,18.2c0.4,4.5,0.8,8.9,1.1,13.4c0,0.3,0.1,0.6,0.2,0.8
		c-0.3,0.9-0.4,1.8-0.2,2.8c0.3,1.4,1,2.6,2.2,3.4c1.2,0.7,2.7,1.3,4.1,0.9c8.4-2.3,17.2-3.9,25.2-7.5c3.6-1.6,7-3.7,10-6.2
		c3-2.4,5.6-5.4,7.5-8.8C226.6,292.4,227.7,288.4,227.9,284.4L227.9,284.4z M183.5,244.1c2.6-0.8,5.2-1.4,7.9-1.6
		c1.3,0,2.7,0.1,4,0.3c1.1,0.3,2.1,0.7,3.1,1.1c0.7,0.4,1.4,0.9,2.1,1.5c0.4,0.4,0.8,0.9,1.2,1.4c0.3,0.5,0.5,0.9,0.7,1.4
		c0.1,0.5,0.2,1.1,0.3,1.7c0,0.7-0.1,1.4-0.2,2.1c-0.3,1-0.6,1.9-1,2.8c-0.6,1-1.3,2-2,2.9c-1.1,1.1-2.3,2-3.5,2.9
		c-3.2,1.9-6.6,3.3-10.1,4.6c-1.6,0.6-3.2,1.1-4.8,1.7c-0.3-1.8-0.6-3.6-1-5.4c-0.8-4.4-1.8-8.8-2.7-13.1c-0.1-0.5-0.3-1.1-0.6-1.6
		C179,245.7,181.2,244.9,183.5,244.1z M207.5,298.4c-3.2,1.9-6.6,3.5-10.1,4.7c-3.8,1.2-7.6,2.1-11.5,3.1
		c-0.5-7.1-1.2-14.3-2.1-21.4c-0.3-2.1-0.5-4.1-0.8-6.2c2.5-1.2,5.1-2.2,7.7-3.1c4.6-1.5,9.4-2.7,14.3-3c1.6-0.1,3.2,0.1,4.7,0.3
		c0.9,0.2,1.8,0.5,2.6,0.9c0.6,0.3,1.1,0.7,1.7,1.2c0.5,0.5,1,1.1,1.4,1.7c0.5,0.8,0.9,1.7,1.2,2.6c0.3,1.2,0.5,2.3,0.6,3.5
		c0,1.2-0.1,2.5-0.3,3.7c-0.3,1.2-0.8,2.4-1.3,3.5c-0.8,1.4-1.8,2.8-2.9,4.1C211.2,295.7,209.4,297.2,207.5,298.4L207.5,298.4z"/>
	<path id="Path_18" class="st2" d="M385.9,324.5c-1.9-1.9-4.9-1.9-6.7,0c-0.9,0.9-1.4,2.1-1.4,3.4c0,0.6,0,1.1-0.1,1.7
		c-0.2,1.1-0.5,2.1-0.9,3.2c-0.5,1-1,1.9-1.7,2.8c-1.2,1.6-2.9,2.9-4.8,3.7c-1.1,0.4-2.1,0.7-3.2,0.9c-1.1,0.1-2.2,0.1-3.3,0
		c-0.9-0.2-1.8-0.4-2.6-0.7c-0.3-0.2-0.6-0.3-0.9-0.5c-0.2-0.2-0.4-0.4-0.6-0.7c-0.5-0.8-1-1.6-1.4-2.5c-0.1-0.3-0.2-0.6-0.3-0.9
		c1.1,0.2,2.2,0,3.1-0.6c1.7-1,3.3-2,4.9-3.2c1.1-0.8,2.1-1.6,3-2.5s1.8-1.9,2.5-2.9c1.3-1.7,2.3-3.7,2.8-5.8
		c0.6-2.4,0.7-5.3-0.1-7.6c-0.9-2.5-2.6-4.7-5.1-5.8c-0.7-0.3-1.3-0.6-2-0.8c-0.7-0.2-1.5-0.3-2.3-0.4c-1.1-0.1-2.3,0-3.4,0.3
		c-2.3,0.4-4.4,1.8-6.2,3.4c-1.5,1.4-2.9,3.1-3.9,4.9c-2.1,3.7-3.4,7.8-3.8,12.1c-0.2,1.8-0.2,3.5,0,5.3c0.2,2.1,0.6,4.2,1.3,6.2
		c0.7,2.1,1.6,4,2.8,5.8c0.5,0.6,1,1.3,1.5,1.9c0.6,0.6,1.2,1.1,1.9,1.6c1.1,0.7,2.2,1.3,3.5,1.8c2,0.7,4.2,1.1,6.3,1.2
		c2.1,0.1,4.2-0.2,6.3-0.7c4.1-1,7.8-3.3,10.5-6.4s4.7-6.9,5.3-11.1c0.2-1.2,0.3-2.4,0.3-3.6C387.3,326.6,386.8,325.4,385.9,324.5z
		 M362,315.7c0.3-0.2,0.7-0.4,1-0.6c0.2-0.1,0.5-0.1,0.7-0.2c0.2,0,0.4,0,0.6,0s0.3,0.1,0.5,0.1c0.1,0,0.1,0.1,0.2,0.1l0,0
		c0,0,0,0.1,0.1,0.1c0.1,0.2,0.1,0.3,0.1,0.5c0,0.4,0,0.7,0,1.1c-0.1,0.5-0.3,1-0.4,1.6c-0.3,0.7-0.7,1.4-1.2,2
		c-0.8,0.9-1.7,1.8-2.7,2.6c-1.3,0.9-2.6,1.8-3.9,2.6c0.3-1.6,0.7-3.2,1.3-4.7c0.6-1.3,1.3-2.5,2.1-3.6
		C360.9,316.7,361.5,316.2,362,315.7z"/>
	<path id="Path_19" class="st2" d="M304.2,355.7c0.1-3.9-0.7-7.8-2.3-11.3c-1.7-3.4-4.3-6.5-7.7-8.3c-1.2-0.7-2.5-1.3-3.8-1.7
		c-1.3-0.4-2.7-0.7-4-0.9c-0.2,0-0.3,0-0.5-0.1c0.1-0.1,0.1-0.2,0.2-0.3c2.4-3.7,3.8-8,3.6-12.5c-0.2-4.2-2-8.3-5-11.2
		c-0.9-0.8-1.8-1.6-2.7-2.3c-1-0.7-2.1-1.2-3.2-1.8c-1.9-0.9-3.8-1.5-5.8-1.8c-2.2-0.4-4.4-0.5-6.6-0.3c-2,0.1-4.1,0.5-6,1
		c-4.1,1.1-8.2,2.5-12.1,4.2c-6.9,2.9-13.8,6.9-18,13.2c-0.7,1-1.3,2.1-1.8,3.3c-0.6,1.1-0.3,3,0.2,4.1c1.3,2.7,4.5,3.8,7.1,2.5l0,0
		l1.1-0.7c0.6-0.5,1.1-1.2,1.4-2c0.6-1.1,1.3-2.1,2.1-3c1-1,2-1.9,3.1-2.8c1.4,6.5,2.7,13,3.8,19.5c-0.3,0.4-0.5,0.9-0.7,1.3
		c-0.5,1.4-0.4,2.8,0.2,4.1c0.4,0.8,1,1.5,1.7,2c0.9,6.1,1.6,12.1,2.3,18.2c0.4,4.5,0.8,8.9,1.1,13.4c0,0.3,0.1,0.6,0.2,0.8
		c-0.3,0.9-0.4,1.8-0.2,2.8c0.3,1.4,1,2.6,2.2,3.4c1.2,0.7,2.7,1.3,4.1,0.9c8.4-2.3,17.2-3.9,25.2-7.5c3.6-1.6,7-3.7,10-6.2
		c3-2.4,5.6-5.4,7.5-8.8C302.9,363.7,304,359.8,304.2,355.7L304.2,355.7z M259.8,315.5c2.6-0.8,5.2-1.4,7.9-1.6c1.3,0,2.7,0.1,4,0.3
		c1.1,0.3,2.1,0.7,3.1,1.1c0.7,0.4,1.4,0.9,2.1,1.5c0.4,0.4,0.8,0.9,1.2,1.4c0.3,0.5,0.5,0.9,0.7,1.4c0.1,0.5,0.2,1.1,0.3,1.7
		c0,0.7-0.1,1.4-0.2,2.1c-0.3,1-0.6,1.9-1,2.8c-0.6,1-1.3,2-2,2.9c-1.1,1.1-2.3,2-3.5,2.9c-3.2,1.9-6.6,3.3-10.1,4.6
		c-1.6,0.6-3.2,1.1-4.8,1.7c-0.3-1.8-0.6-3.6-1-5.4c-0.8-4.4-1.8-8.8-2.7-13.1c-0.1-0.5-0.3-1.1-0.6-1.6
		C255.3,317.1,257.5,316.2,259.8,315.5z M283.8,369.8c-3.2,1.9-6.6,3.5-10.1,4.7c-3.8,1.2-7.6,2.1-11.5,3.1
		c-0.5-7.1-1.2-14.3-2.1-21.4c-0.3-2.1-0.5-4.1-0.8-6.2c2.5-1.2,5.1-2.2,7.7-3.1c4.6-1.5,9.4-2.7,14.3-3c1.6-0.1,3.2,0.1,4.7,0.3
		c0.9,0.2,1.8,0.5,2.6,0.9c0.6,0.3,1.1,0.7,1.7,1.2c0.5,0.5,1,1.1,1.4,1.7c0.5,0.8,0.9,1.7,1.2,2.6c0.3,1.2,0.5,2.3,0.6,3.5
		c0.1,2.5-0.4,5-1.6,7.2c-0.8,1.4-1.8,2.8-2.9,4.1C287.5,367.1,285.7,368.5,283.8,369.8z"/>
	<path id="Path_20" class="st2" d="M345.7,339.8c-1.9-1.9-4.9-1.9-6.7,0c-0.9,0.9-1.4,2.1-1.4,3.4c0,0.6,0,1.1-0.1,1.7
		c-0.2,1.1-0.5,2.1-0.9,3.2c-0.5,1-1,1.9-1.7,2.8c-1.2,1.6-2.9,2.9-4.8,3.7c-1.1,0.4-2.1,0.7-3.2,0.9c-1.1,0.1-2.2,0.1-3.3,0
		c-0.9-0.2-1.8-0.4-2.6-0.7c-0.3-0.2-0.6-0.3-0.9-0.5c-0.2-0.2-0.4-0.4-0.6-0.7c-0.5-0.8-1-1.6-1.4-2.5c-0.1-0.3-0.2-0.6-0.3-0.9
		c1.1,0.2,2.2,0,3.1-0.6c1.7-1,3.3-2,4.9-3.2c1.1-0.8,2.1-1.6,3-2.5s1.8-1.9,2.5-2.9c1.3-1.7,2.3-3.7,2.8-5.8
		c0.6-2.4,0.7-5.3-0.1-7.6c-0.9-2.5-2.6-4.7-5.1-5.8c-0.7-0.3-1.3-0.6-2-0.8c-0.7-0.2-1.5-0.3-2.3-0.4c-1.1-0.1-2.3,0-3.4,0.3
		c-2.3,0.4-4.4,1.8-6.2,3.4c-1.5,1.4-2.9,3.1-3.9,4.9c-2.1,3.7-3.4,7.8-3.8,12.1c-0.2,1.8-0.2,3.5,0,5.3c0.2,2.1,0.6,4.2,1.3,6.2
		c0.7,2.1,1.6,4,2.8,5.8c0.5,0.6,1,1.3,1.5,1.9c0.6,0.6,1.2,1.1,1.9,1.6c1.1,0.7,2.2,1.3,3.5,1.8c2,0.7,4.2,1.1,6.3,1.2
		c2.1,0.1,4.2-0.2,6.3-0.7c4.1-1.1,7.8-3.3,10.5-6.4s4.7-6.9,5.3-11.1c0.2-1.2,0.3-2.4,0.3-3.6C347.1,341.9,346.6,340.7,345.7,339.8
		z M321.8,330.9c0.3-0.2,0.7-0.4,1-0.6c0.2-0.1,0.5-0.1,0.7-0.2c0.2,0,0.4,0,0.6,0s0.3,0.1,0.5,0.1c0.1,0,0.1,0.1,0.2,0.1l0,0
		c0,0,0,0.1,0.1,0.1c0.1,0.2,0.1,0.3,0.1,0.5c0,0.4,0,0.7,0,1.1c-0.1,0.5-0.3,1-0.4,1.6c-0.3,0.7-0.7,1.4-1.2,2
		c-0.8,0.9-1.7,1.8-2.7,2.6c-1.3,0.9-2.6,1.8-3.9,2.6c0.3-1.6,0.7-3.2,1.3-4.7c0.6-1.3,1.3-2.5,2.1-3.6
		C320.7,332,321.2,331.4,321.8,330.9z"/>
	<path id="Path_21" class="st2" d="M428.9,313.5c-0.2-1.3-1-2.6-2.1-3.4s-2.5-1.1-3.9-0.8c-6.3,1.4-11.5,5.3-16.8,9
		c-1.3,0.9-2.6,1.8-4,2.5c2.9-4.9,6.7-9.2,9.8-13.9c0.9-1.4,1.8-2.9,2.7-4.4c1.3-2.4,2.7-5.1,2-8c-0.5-2.3-2-4.1-4.1-5
		c-1.4-0.6-2.9-0.6-4.4-0.4c-1.7,0.3-3.4,0.6-5,1.2c-2.3,0.6-4.6,1.4-6.8,2.2c-1,0.4-2.1,0.8-3.1,1.3c-0.5-0.6-1.2-1-1.9-1.3
		c-1.3-0.5-2.7-0.4-4,0.2l-1.1,0.8c-0.7,0.6-1.2,1.4-1.5,2.2c0,0.1-0.1,0.2-0.1,0.3c-0.2,0.5-0.3,1.1-0.3,1.6c0,0.6,0,1.3,0.1,1.9
		c0.2,1.3,0.8,2.4,1.7,3.4c1,1.1,2.3,1.8,3.7,2.2c1.2,0.3,2.4,0.3,3.5,0c1.5-0.5,3-1.1,4.5-1.8c1-0.4,2-0.8,3-1.2
		c0.8-0.3,1.7-0.6,2.5-0.8c-3,4.4-6.4,8.4-9.2,12.9c-1.2,1.9-2.2,3.8-3.1,5.9c-1,2.6-1.3,5.8,0,8.3c1.2,2.5,3.5,4.2,6.2,4.6
		c0.4,0.1,0.8,0.1,1.2,0.1c0.8,0,1.6-0.1,2.3-0.2c0.8-0.2,1.6-0.5,2.4-0.8s1.5-0.6,2.2-1c3.5-1.8,6.7-4.2,10-6.5
		c2.3-1.7,4.9-3.1,7.5-4.2c0.6-0.2,1.2-0.3,1.8-0.5c1.3-0.3,2.5-1.1,3.2-2.2C428.8,316.3,429.1,314.9,428.9,313.5z"/>
	<path id="Path_24" class="st2" d="M373.5,245.6c-0.1-1.8-0.4-3.7-0.9-5.4c-0.9-3-2.6-5.7-4.7-8c-4-4.4-9.5-5.7-14.5-5.3
		c-3.1,0.2-6,1.2-8.9,2.4c-0.4-2.1-0.8-4.3-1.2-6.4c-0.5-3-1-6.1-1.4-9.1c-0.8-6.2-1.4-12.3-1.9-18.5c0-1.6-0.7-3-1.7-4.2
		c-2.3-2.3-6-2.3-8.4,0c-1,1.1-1.8,2.6-1.7,4.2c0.8,11.1,2.1,22.1,4.1,33c0.9,5.2,2,10.4,3.1,15.5c0.6,2.6,1.2,5.1,1.9,7.7
		c0.6,2.4,1.2,4.9,2,7.2c0.6,2,1.7,3.9,3,5.5c0.7,0.8,1.5,1.5,2.5,2c0.6,0.4,1.3,0.6,2,0.9l0,0c0.1,0,0.2,0.1,0.3,0.1
		c1.8,0.5,3.7,0.4,5.5-0.1c0.5-0.2,1-0.4,1.5-0.7c0.3-0.1,0.7-0.1,1-0.2c2.6-0.6,5.1-1.4,7.6-2.6c1.3-0.7,2.6-1.5,3.7-2.4
		c0.9-0.7,1.7-1.4,2.5-2.3c2-2.3,3.4-5,4.1-7.9C373.4,249.3,373.5,247.5,373.5,245.6z M364,246.6c-0.1,0.5-0.3,1-0.4,1.4
		c-0.3,0.6-0.6,1.2-1,1.7c-0.6,0.6-1.2,1.2-1.8,1.8c-1.6,1-3.3,1.8-5.1,2.4c-1.7,0.5-3.4,0.9-5.1,1.1c-0.6-2-1.3-4.8-1.7-6.5
		c-0.7-2.6-1.3-5.1-1.9-7.7c1.3-0.5,2.5-1.1,3.8-1.5c1.8-0.5,3.6-0.8,5.4-0.9c1,0.1,2.1,0.3,3.1,0.6c0.7,0.3,1.3,0.6,1.9,1
		c0.5,0.4,1,0.9,1.4,1.3c0.4,0.5,0.7,1,1,1.5c0.2,0.4,0.4,0.9,0.5,1.4c0.1,0.4,0.1,0.7,0.2,1.1C364.1,245.8,364.1,246.2,364,246.6
		L364,246.6z"/>
</g>
</svg>
