<?xml version="1.0" encoding="utf-8"?>
<!-- Generator: Adobe Illustrator 23.0.2, SVG Export Plug-In . SVG Version: 6.00 Build 0)  -->
<svg version="1.1" xmlns="http://www.w3.org/2000/svg" xmlns:xlink="http://www.w3.org/1999/xlink" x="0px" y="0px"
	 viewBox="0 0 612 792" style="enable-background:new 0 0 612 792;" xml:space="preserve">
<style type="text/css">
	.st0{fill:#CCCCCC;stroke:#231F20;stroke-width:9.5724;stroke-miterlimit:10;}
	.st1{opacity:0.3;fill:#FFFFFF;}
	.st2{fill:#231F20;}
	.st3{fill:#FFF573;stroke:#231F20;stroke-width:14.9274;stroke-miterlimit:10;}
	.st4{fill:none;stroke:#231F20;stroke-width:33.172;stroke-miterlimit:10;}
	.st5{opacity:0.41;fill:#FFA6A6;}
	.st6{opacity:0.14;fill:#231F20;}
	.st7{fill:none;stroke:#231F20;stroke-width:12.939;stroke-miterlimit:10;}
	.st8{fill:#1E1E1E;}
</style>
<g id="wings">
</g>
<g id="antena">
</g>
<g id="body">
</g>
<g id="legs">
	<g>
		<g>
			
				<ellipse transform="matrix(0.401 -0.9161 0.9161 0.401 -96.3255 354.1666)" class="st0" cx="222.65" cy="250.74" rx="42.16" ry="54.18"/>
			
				<ellipse transform="matrix(0.9528 -0.3035 0.3035 0.9528 -49.2567 109.2427)" class="st0" cx="326.84" cy="213.1" rx="83.8" ry="65.13"/>
			<path class="st1" d="M179,259c0,0,1-47,52-45c0,0-25.75-8.67-44.11,5.26C178,226,170,240,179,259z"/>
			<path class="st1" d="M251.76,240.19c0,0,25.19-87.01,142.83-66.02c0,0-34.59-43.16-100.51-12.53
				C277.49,169.35,239,196,251.76,240.19z"/>
		</g>
		<path d="M557,253.61c0,8.7-8.29,15.74-18.48,15.74c-8,0-14.81-4.31-17.39-10.37c-17.15,7.45-41.95,24.77-50.29,63.77l-10.39-6.51
			c0,0,9.27-57.52,62.36-70.94c3.25-4.47,9.07-7.44,15.71-7.44C548.71,237.86,557,244.92,557,253.61z"/>
		<polygon class="st2" points="45,416.55 103.28,432.4 103.86,403.81 		"/>
		
			<ellipse transform="matrix(0.0329 -0.9995 0.9995 0.0329 -108.3146 727.8134)" class="st3" cx="321.93" cy="419.88" rx="163.8" ry="229.59"/>
		<path class="st4" d="M184.51,548.9"/>
		
			<ellipse transform="matrix(0.9916 -0.1291 0.1291 0.9916 -53.2442 64.0032)" class="st5" cx="467.03" cy="442.67" rx="36.44" ry="13.98"/>
		<path class="st6" d="M97.93,452.15c0,0,126.31,135.51,413.4,63.36c0,0-93.95,98.05-255.81,60.17
			C93.65,537.8,97.93,452.15,97.93,452.15z"/>
		<path class="st7" d="M422.04,398.66"/>
		<path class="st7" d="M497.19,389.5"/>
		<path d="M500.68,382.25c2.16,16.59-4.26,31.11-14.33,32.42c-10.08,1.31-20-11.08-22.16-27.67c-2.16-16.59,4.26-31.11,14.33-32.42
			C488.6,353.26,498.52,365.65,500.68,382.25z"/>
		<path d="M508.41,429.78l36.62-3.67c0,0,1.14,15.38,1.18,23.76c0.06,14.02-2.84,28.75-2.84,28.75
			C510.18,481.95,508.41,429.78,508.41,429.78z"/>
		<path class="st8" d="M224.02,566.49c0,0-0.01,0.34-0.02,0.99c-0.06,2.29-0.26,8.26-0.8,14.39c-0.27,3.06-0.63,6.16-1.07,8.78
			c-0.42,2.6-1.02,4.81-1.38,5.61c-0.19,0.45-0.74,1.51-1.52,2.77c-2.75,4.51-8.12,11.67-12.7,17.48c-2.29,2.92-4.4,5.54-5.93,7.42
			c-0.77,0.94-1.39,1.7-1.82,2.22c-0.43,0.52-0.66,0.79-0.66,0.79l11.16,9.29c0.03-0.04,5.14-6.18,10.73-13.4
			c2.8-3.62,5.71-7.5,8.21-11.08c1.25-1.8,2.39-3.52,3.38-5.13c0.99-1.63,1.83-3.11,2.5-4.68c0.67-1.59,1.13-3.19,1.54-4.89
			c1.38-5.9,2.02-13.24,2.42-19.38c0.39-6.1,0.47-10.86,0.47-10.93L224.02,566.49L224.02,566.49z"/>
		<path class="st8" d="M276,573.59c0,0-0.01,0.34-0.02,0.99c-0.06,2.29-0.26,8.26-0.8,14.39c-0.27,3.06-0.63,6.16-1.07,8.78
			c-0.42,2.6-1.02,4.81-1.38,5.61c-0.19,0.46-0.74,1.51-1.52,2.77c-2.75,4.51-8.12,11.67-12.7,17.48c-2.29,2.92-4.4,5.54-5.93,7.42
			c-0.77,0.94-1.39,1.7-1.82,2.22c-0.43,0.52-0.66,0.79-0.66,0.79l11.16,9.29c0.03-0.04,5.14-6.18,10.73-13.4
			c2.8-3.62,5.71-7.5,8.21-11.08c1.25-1.8,2.39-3.52,3.38-5.13c0.99-1.63,1.83-3.11,2.5-4.68c0.67-1.59,1.13-3.19,1.54-4.89
			c1.38-5.9,2.02-13.24,2.42-19.38c0.39-6.1,0.47-10.86,0.47-10.93L276,573.59L276,573.59z"/>
		<path class="st8" d="M327.69,575.38c0,0-0.01,0.34-0.02,0.99c-0.06,2.29-0.26,8.26-0.8,14.39c-0.27,3.06-0.63,6.16-1.07,8.78
			c-0.42,2.6-1.02,4.81-1.38,5.61c-0.19,0.45-0.74,1.51-1.52,2.77c-2.75,4.51-8.12,11.67-12.7,17.48c-2.29,2.92-4.4,5.54-5.93,7.42
			c-0.77,0.94-1.39,1.7-1.82,2.22c-0.43,0.52-0.66,0.79-0.66,0.79l11.16,9.29c0.03-0.04,5.14-6.18,10.73-13.4
			c2.8-3.62,5.71-7.5,8.21-11.08c1.25-1.8,2.39-3.51,3.38-5.13c0.99-1.63,1.83-3.11,2.5-4.68c0.67-1.59,1.13-3.19,1.54-4.89
			c1.38-5.9,2.02-13.24,2.42-19.38c0.39-6.1,0.47-10.86,0.47-10.93L327.69,575.38L327.69,575.38z"/>
		<path class="st8" d="M379.78,573.51c0,0-0.01,0.34-0.02,0.99c-0.06,2.29-0.26,8.26-0.8,14.39c-0.27,3.06-0.63,6.16-1.07,8.78
			c-0.42,2.6-1.02,4.81-1.38,5.61c-0.19,0.45-0.74,1.51-1.52,2.77c-2.75,4.51-8.13,11.67-12.7,17.48c-2.29,2.92-4.4,5.54-5.93,7.42
			c-0.77,0.94-1.39,1.7-1.82,2.22c-0.43,0.52-0.66,0.79-0.66,0.79l11.16,9.29c0.03-0.04,5.14-6.18,10.73-13.4
			c2.8-3.62,5.71-7.5,8.21-11.08c1.25-1.8,2.39-3.51,3.38-5.13c0.99-1.63,1.83-3.11,2.5-4.68c0.67-1.59,1.13-3.19,1.54-4.9
			c1.38-5.9,2.02-13.24,2.42-19.38c0.39-6.1,0.46-10.86,0.47-10.93L379.78,573.51L379.78,573.51z"/>
		<path class="st2" d="M177.69,290.09c0,0,5.87-8.19,24.34-11.89v281.2l-24.34-14.4V290.09z"/>
		<path class="st2" d="M286.23,258.02c0,0,54.56-7.43,107.77,8.53v308.83c0,0-67.71,17.09-113.75,4.11L286.23,258.02z"/>
	</g>
</g>
</svg>
